<svg viewBox="0 0 128 36" xmlns="http://www.w3.org/2000/svg" xmlns:xlink="http://www.w3.org/1999/xlink" width="128.000000" height="36.000000" fill="none" customFrame="#000000">
	<defs>
		<linearGradient id="paint_linear_0" x1="0" x2="35.9999962" y1="0" y2="35.9999962" gradientUnits="userSpaceOnUse">
			<stop stop-color="rgb(230,206,170)" offset="0" stop-opacity="1" />
			<stop stop-color="rgb(200,162,123)" offset="1" stop-opacity="1" />
		</linearGradient>
		<linearGradient id="paint_linear_1" x1="46" x2="82" y1="0" y2="35.9999962" gradientUnits="userSpaceOnUse">
			<stop stop-color="rgb(230,206,170)" offset="0" stop-opacity="1" />
			<stop stop-color="rgb(200,162,123)" offset="1" stop-opacity="1" />
		</linearGradient>
		<linearGradient id="paint_linear_2" x1="92" x2="128" y1="0" y2="35.9999962" gradientUnits="userSpaceOnUse">
			<stop stop-color="rgb(230,206,170)" offset="0" stop-opacity="1" />
			<stop stop-color="rgb(200,162,123)" offset="1" stop-opacity="1" />
		</linearGradient>
	</defs>
	<rect id="Frame 90" width="128.000000" height="36.000000" x="0.000000" y="0.000000" />
	<path id="Vector" d="M36 18C36 27.9405 27.9405 36 18 36C8.0595 36 0 27.9405 0 18C0 8.0595 8.0595 0 18 0C27.9405 0 36 8.0595 36 18ZM18.645 13.2885C16.8945 14.016 13.395 15.5235 8.148 17.8095C7.296 18.1485 6.849 18.48 6.8085 18.804C6.7395 19.353 7.4265 19.569 8.3595 19.8615C8.487 19.902 8.619 19.9425 8.754 19.9875C9.6735 20.286 10.9095 20.6355 11.5515 20.649C12.135 20.661 12.786 20.421 13.5045 19.929C18.4065 16.6185 20.937 14.946 21.096 14.91C21.2085 14.8845 21.3645 14.8515 21.4695 14.946C21.5745 15.039 21.564 15.216 21.5535 15.264C21.4845 15.5535 18.7935 18.057 17.3985 19.353C16.9635 19.7565 16.656 20.043 16.593 20.109C16.452 20.2545 16.308 20.394 16.17 20.5275C15.315 21.3495 14.676 21.9675 16.206 22.9755C16.941 23.46 17.529 23.8605 18.1155 24.2595C18.756 24.696 19.395 25.131 20.223 25.674C20.433 25.812 20.634 25.9545 20.8305 26.094C21.576 26.6265 22.2465 27.1035 23.0745 27.0285C23.5545 26.9835 24.0525 26.532 24.3045 25.1835C24.9 21.9945 26.073 15.0885 26.3445 12.2415C26.361 12.0051 26.351 11.7676 26.3145 11.5335C26.2927 11.3444 26.2006 11.1704 26.0565 11.046C25.842 10.8705 25.509 10.833 25.359 10.836C24.6825 10.848 23.6445 11.2095 18.645 13.2885Z" fill="url(#paint_linear_0)" fill-rule="evenodd" />
	<g id="Group 90">
		<circle id="Ellipse 62" cx="64" cy="18" r="18" fill="url(#paint_linear_1)" />
		<path id="Vector" d="M63.421 7.00335C61.5608 7.02563 57.5616 7.32898 55.3247 9.36545C53.6608 11.0015 53.0799 13.4204 53.0118 16.4115C52.9553 19.3918 52.8872 24.9887 58.3236 26.5126L58.3236 28.8338C58.3236 28.8338 58.2896 29.7625 58.9082 29.953C59.6702 30.1924 60.1041 29.4778 60.8285 28.7101L62.1794 27.1941C65.899 27.501 68.748 26.7937 69.0761 26.6887C69.8309 26.4494 74.0822 25.9102 74.7769 20.3126C75.4897 14.5317 74.4299 10.8894 72.5169 9.24181L72.5053 9.24181C71.928 8.71418 69.6078 7.03641 64.4242 7.01772C64.4242 7.01772 64.0396 6.99185 63.421 7.00263L63.421 7.00335ZM63.4847 8.62864C64.0128 8.62505 64.3337 8.64733 64.3337 8.64733C68.7212 8.65883 70.8153 9.96928 71.3094 10.4106C72.9203 11.7807 73.7505 15.0644 73.1427 19.8907C72.5654 24.5703 69.1174 24.8665 68.4792 25.0685C68.2076 25.1547 65.6984 25.7686 62.5372 25.5666C62.5372 25.5666 60.1831 28.3859 59.4471 29.1119C59.3305 29.2392 59.1943 29.2766 59.1074 29.2579C58.9828 29.2277 58.9451 29.0746 58.9523 28.8647L58.9748 25.0124C54.3642 23.7473 54.6358 18.9734 54.6851 16.4798C54.7416 13.9861 55.2132 11.9461 56.617 10.5645C58.5069 8.86873 61.9027 8.64014 63.4833 8.62864L63.4847 8.62864ZM63.8324 11.1216C63.7945 11.1212 63.7568 11.1283 63.7216 11.1424C63.6865 11.1565 63.6545 11.1774 63.6275 11.2039C63.6005 11.2303 63.579 11.2618 63.5643 11.2966C63.5496 11.3313 63.542 11.3686 63.5419 11.4062C63.5419 11.5673 63.6738 11.6945 63.8324 11.6945C64.5506 11.6809 65.2645 11.8086 65.9327 12.0702C66.6009 12.3317 67.2104 12.722 67.7259 13.2184C68.7784 14.2327 69.2913 15.5956 69.3108 17.3776C69.3108 17.5351 69.439 17.6659 69.6013 17.6659L69.6013 17.6544C69.6778 17.6546 69.7512 17.6248 69.8056 17.5714C69.86 17.5181 69.891 17.4456 69.8918 17.3697C69.9269 16.5309 69.7899 15.6938 69.4889 14.9093C69.1879 14.1247 68.7293 13.409 68.141 12.8058C66.9943 11.6938 65.5412 11.1209 63.8324 11.1209L63.8324 11.1216ZM60.0143 11.7807C59.8092 11.751 59.6001 11.7919 59.4217 11.8965L59.4065 11.8965C58.9924 12.1374 58.6193 12.4419 58.3011 12.7986C58.0367 13.102 57.8933 13.4089 57.8557 13.7044C57.8332 13.8805 57.8484 14.0566 57.9013 14.2248L57.9201 14.2363C58.2178 15.1047 58.6068 15.9399 59.082 16.7264C59.6941 17.8312 60.4474 18.853 61.3232 19.7663L61.3493 19.8037L61.3906 19.8339L61.4166 19.8641L61.4471 19.89C62.3708 20.7616 63.4029 21.5127 64.5184 22.1248C65.7933 22.8135 66.5669 23.1391 67.0312 23.2743L67.0312 23.2814C67.1674 23.3224 67.2913 23.3411 67.4159 23.3411C67.8116 23.3123 68.1862 23.1529 68.48 22.8882C68.8378 22.5724 69.1412 22.2007 69.3782 21.7877L69.3782 21.7805C69.6006 21.365 69.5252 20.9718 69.2043 20.7058C68.5617 20.1484 67.8667 19.6532 67.129 19.2272C66.635 18.9612 66.133 19.1222 65.9295 19.3918L65.4956 19.9345C65.2732 20.2041 64.869 20.1667 64.869 20.1667L64.8574 20.1739C61.8433 19.4098 61.0393 16.3813 61.0393 16.3813C61.0393 16.3813 61.0016 15.9694 61.2805 15.7595L61.8237 15.3253C62.0838 15.1154 62.2649 14.618 61.986 14.127C61.5596 13.3939 61.0618 12.7041 60.4996 12.0676C60.3767 11.9175 60.2043 11.8154 60.0128 11.7793L60.0143 11.7807ZM64.3337 12.6347C63.949 12.6347 63.949 13.2112 64.3373 13.2112C64.8156 13.2189 65.2877 13.3201 65.7265 13.5089C66.1654 13.6978 66.5625 13.9706 66.8951 14.3118C67.1984 14.6439 67.4316 15.033 67.5806 15.4562C67.7297 15.8794 67.7916 16.3279 67.7628 16.7752C67.7642 16.8509 67.7953 16.9231 67.8496 16.9763C67.9039 17.0295 67.977 17.0595 68.0533 17.0599L68.0649 17.075C68.1418 17.0744 68.2153 17.0439 68.2697 16.9899C68.324 16.936 68.3548 16.863 68.3554 16.7867C68.3815 15.6445 68.0236 14.6863 67.3217 13.9186C66.6162 13.1509 65.6318 12.7203 64.375 12.6347L64.3337 12.6347ZM64.8096 14.1845C64.4134 14.173 64.3981 14.7611 64.7908 14.7726C65.7455 14.8214 66.2091 15.3002 66.2699 16.285C66.2712 16.3597 66.302 16.431 66.3556 16.4835C66.4092 16.5361 66.4814 16.5657 66.5568 16.5661L66.5684 16.5661C66.6071 16.5644 66.6451 16.5551 66.6802 16.5387C66.7153 16.5224 66.7467 16.4992 66.7727 16.4706C66.7986 16.442 66.8186 16.4086 66.8314 16.3723C66.8442 16.336 66.8496 16.2975 66.8472 16.2591C66.7792 14.9753 66.0736 14.2521 64.8212 14.1853L64.8096 14.1853L64.8096 14.1845Z" fill="rgb(34,34,34)" fill-rule="nonzero" />
	</g>
	<g id="Group 213">
		<g id="Group 91">
			<circle id="Ellipse 62" cx="110" cy="18" r="18" fill="url(#paint_linear_2)" />
		</g>
		<path id="Vector" d="M117 9.91006C116.083 8.98398 114.991 8.24973 113.788 7.75011C112.584 7.25049 111.293 6.99552 109.99 7.00006C104.53 7.00006 100.08 11.4501 100.08 16.9101C100.08 18.6601 100.54 20.3601 101.4 21.8601L100 27.0001L105.25 25.6201C106.7 26.4101 108.33 26.8301 109.99 26.8301C115.45 26.8301 119.9 22.3801 119.9 16.9201C119.9 14.2701 118.87 11.7801 117 9.91006ZM109.99 25.1501C108.51 25.1501 107.06 24.7501 105.79 24.0001L105.49 23.8201L102.37 24.6401L103.2 21.6001L103 21.2901C102.178 19.977 101.741 18.4593 101.74 16.9101C101.74 12.3701 105.44 8.67006 109.98 8.67006C112.18 8.67006 114.25 9.53006 115.8 11.0901C116.567 11.854 117.176 12.7627 117.589 13.7635C118.003 14.7642 118.214 15.8372 118.21 16.9201C118.23 21.4601 114.53 25.1501 109.99 25.1501ZM114.51 18.9901C114.26 18.8701 113.04 18.2701 112.82 18.1801C112.59 18.1001 112.43 18.0601 112.26 18.3001C112.09 18.5501 111.62 19.1101 111.48 19.2701C111.34 19.4401 111.19 19.4601 110.94 19.3301C110.69 19.2101 109.89 18.9401 108.95 18.1001C108.21 17.4401 107.72 16.6301 107.57 16.3801C107.43 16.1301 107.55 16.0001 107.68 15.8701C107.79 15.7601 107.93 15.5801 108.05 15.4401C108.17 15.3001 108.22 15.1901 108.3 15.0301C108.38 14.8601 108.34 14.7201 108.28 14.6001C108.22 14.4801 107.72 13.2601 107.52 12.7601C107.32 12.2801 107.11 12.3401 106.96 12.3301L106.48 12.3301C106.31 12.3301 106.05 12.3901 105.82 12.6401C105.6 12.8901 104.96 13.4901 104.96 14.7101C104.96 15.9301 105.85 17.1101 105.97 17.2701C106.09 17.4401 107.72 19.9401 110.2 21.0101C110.79 21.2701 111.25 21.4201 111.61 21.5301C112.2 21.7201 112.74 21.6901 113.17 21.6301C113.65 21.5601 114.64 21.0301 114.84 20.4501C115.05 19.8701 115.05 19.3801 114.98 19.2701C114.91 19.1601 114.76 19.1101 114.51 18.9901Z" fill="rgb(34,34,34)" fill-rule="nonzero" />
	</g>
</svg>
