<svg viewBox="0 0 638 140" xmlns="http://www.w3.org/2000/svg" xmlns:xlink="http://www.w3.org/1999/xlink" width="638.000000" height="140.000000" fill="none" customFrame="#000000">
	<defs>
		<clipPath id="clipPath_0">
			<rect width="234.000000" height="140.000000" x="0.000000" y="0.000000" fill="rgb(255,255,255)" />
		</clipPath>
		<linearGradient id="paint_linear_1" x1="35.5" x2="145.0979" y1="0" y2="154.003937" gradientUnits="userSpaceOnUse">
			<stop stop-color="rgb(230,206,170)" offset="0" stop-opacity="1" />
			<stop stop-color="rgb(200,162,123)" offset="1" stop-opacity="1" />
		</linearGradient>
		<clipPath id="clipPath_1">
			<rect width="181.000000" height="140.000000" x="273.000000" y="0.000000" fill="rgb(255,255,255)" />
		</clipPath>
		<linearGradient id="paint_linear_2" x1="336" x2="425.810089" y1="0" y2="42.5823669" gradientUnits="userSpaceOnUse">
			<stop stop-color="rgb(230,206,170)" offset="0" stop-opacity="1" />
			<stop stop-color="rgb(200,162,123)" offset="1" stop-opacity="1" />
		</linearGradient>
		<clipPath id="clipPath_2">
			<rect width="145.000000" height="140.000000" x="493.000000" y="0.000000" fill="rgb(255,255,255)" />
		</clipPath>
		<linearGradient id="paint_linear_3" x1="493" x2="606.170715" y1="0" y2="141.463425" gradientUnits="userSpaceOnUse">
			<stop stop-color="rgb(230,206,170)" offset="0" stop-opacity="1" />
			<stop stop-color="rgb(200,162,123)" offset="1" stop-opacity="1" />
		</linearGradient>
	</defs>
	<rect id="Frame 981" width="638.000000" height="140.000000" x="0.000000" y="0.000000" />
	<g id="Frame 980" customFrame="url(#clipPath_0)">
		<rect id="Frame 980" width="234.000000" height="140.000000" x="0.000000" y="0.000000" />
		<path id="50+" d="M62.38 48.064C68.844 48.064 74.284 50.016 78.7 53.92C83.116 57.76 85.324 63.136 85.324 70.048C85.324 76.96 82.988 82.368 78.316 86.272C73.708 90.176 68.044 92.128 61.324 92.128C55.884 92.128 51.084 90.912 46.924 88.48C42.764 86.048 39.756 82.464 37.9 77.728L49.228 71.104C50.892 76.48 54.924 79.168 61.324 79.168C64.716 79.168 67.34 78.368 69.196 76.768C71.116 75.104 72.076 72.864 72.076 70.048C72.076 67.296 71.148 65.088 69.292 63.424C67.436 61.76 64.908 60.928 61.708 60.928L41.356 60.928L44.044 23.584L82.156 23.584L82.156 35.968L56.332 35.968L55.468 48.064L62.38 48.064ZM116.811 92.128C108.427 92.128 101.835 88.96 97.0352 82.624C92.2993 76.224 89.9313 67.744 89.9313 57.184C89.9313 46.624 92.2993 38.176 97.0352 31.84C101.835 25.44 108.427 22.24 116.811 22.24C125.259 22.24 131.851 25.44 136.587 31.84C141.323 38.176 143.691 46.624 143.691 57.184C143.691 67.744 141.323 76.224 136.587 82.624C131.851 88.96 125.259 92.128 116.811 92.128ZM106.635 73.6C108.939 77.312 112.331 79.168 116.811 79.168C121.291 79.168 124.683 77.28 126.987 73.504C129.355 69.728 130.539 64.288 130.539 57.184C130.539 50.016 129.355 44.544 126.987 40.768C124.683 36.992 121.291 35.104 116.811 35.104C112.331 35.104 108.939 36.992 106.635 40.768C104.331 44.544 103.179 50.016 103.179 57.184C103.179 64.352 104.331 69.824 106.635 73.6ZM194.368 51.328L194.368 62.944L178.528 62.944L178.528 78.784L166.912 78.784L166.912 62.944L151.168 62.944L151.168 51.328L166.912 51.328L166.912 35.584L178.528 35.584L178.528 51.328L194.368 51.328Z" fill="url(#paint_linear_1)" fill-rule="nonzero" />
		<path id="млн руб помогли списать" d="M11.58 124.83L11.58 134.83L9.08 134.83L9.08 128.99L6.54 132.99L6.22 132.99L3.66 128.95L3.66 134.83L1.18 134.83L1.18 124.83L3.72 124.83L6.38 129.03L9.04 124.83L11.58 124.83ZM22.3139 124.83L22.3139 134.83L19.7339 134.83L19.7339 127.31L16.9739 127.31L16.9739 130.65C16.9739 133.743 15.5672 135.137 12.7539 134.83L12.7539 132.41C13.2872 132.543 13.6939 132.457 13.9739 132.15C14.2539 131.83 14.3939 131.283 14.3939 130.51L14.3939 124.83L22.3139 124.83ZM31.0119 124.83L33.5919 124.83L33.5919 134.83L31.0119 134.83L31.0119 131.03L27.0319 131.03L27.0319 134.83L24.4519 134.83L24.4519 124.83L27.0319 124.83L27.0319 128.61L31.0119 128.61L31.0119 124.83ZM46.3758 124.55C47.7225 124.55 48.8691 125.063 49.8158 126.09C50.7758 127.103 51.2558 128.35 51.2558 129.83C51.2558 131.31 50.7758 132.563 49.8158 133.59C48.8691 134.603 47.7225 135.11 46.3758 135.11C44.9758 135.11 43.8958 134.623 43.1358 133.65L43.1358 138.83L40.5558 138.83L40.5558 124.83L43.1358 124.83L43.1358 126.01C43.8958 125.037 44.9758 124.55 46.3758 124.55ZM43.9158 131.87C44.4358 132.39 45.0958 132.65 45.8958 132.65C46.6958 132.65 47.3558 132.39 47.8758 131.87C48.4091 131.337 48.6758 130.657 48.6758 129.83C48.6758 129.003 48.4091 128.33 47.8758 127.81C47.3558 127.277 46.6958 127.01 45.8958 127.01C45.0958 127.01 44.4358 127.277 43.9158 127.81C43.3958 128.33 43.1358 129.003 43.1358 129.83C43.1358 130.657 43.3958 131.337 43.9158 131.87ZM59.0047 124.83L61.7647 124.83L58.1247 134.83C57.1114 137.643 55.3514 138.977 52.8447 138.83L52.8447 136.43C53.5247 136.443 54.058 136.317 54.4447 136.05C54.8447 135.783 55.1647 135.337 55.4047 134.71L51.3647 124.83L54.1047 124.83L56.7847 131.55L59.0047 124.83ZM67.1419 135.11C65.5685 135.11 64.2952 134.603 63.3219 133.59C62.3619 132.577 61.8819 131.29 61.8819 129.73C61.8819 128.023 62.1352 126.71 62.6419 125.79C63.1485 124.857 64.1685 124.01 65.7019 123.25C65.9285 123.143 66.2485 122.997 66.6619 122.81C67.0752 122.61 67.3552 122.47 67.5019 122.39C67.6619 122.31 67.8752 122.19 68.1419 122.03C68.4085 121.87 68.5952 121.73 68.7019 121.61C68.8219 121.477 68.9485 121.31 69.0819 121.11C69.2152 120.91 69.3219 120.69 69.4019 120.45L71.5219 121.67C71.3485 122.483 70.9552 123.117 70.3419 123.57C69.7419 124.01 68.8352 124.463 67.6219 124.93C66.7685 125.263 66.1485 125.597 65.7619 125.93C65.3752 126.263 65.0952 126.663 64.9219 127.13C65.6685 126.37 66.6685 125.99 67.9219 125.99C69.0285 125.99 70.0152 126.397 70.8819 127.21C71.7485 128.01 72.1819 129.077 72.1819 130.41C72.1819 131.783 71.7152 132.91 70.7819 133.79C69.8619 134.67 68.6485 135.11 67.1419 135.11ZM65.3019 132.07C65.7952 132.523 66.4019 132.75 67.1219 132.75C67.8419 132.75 68.4352 132.53 68.9019 132.09C69.3685 131.65 69.6019 131.09 69.6019 130.41C69.6019 129.73 69.3685 129.17 68.9019 128.73C68.4352 128.277 67.8352 128.05 67.1019 128.05C66.4485 128.05 65.8619 128.257 65.3419 128.67C64.8352 129.083 64.5819 129.637 64.5819 130.33C64.5819 131.037 64.8219 131.617 65.3019 132.07ZM87.4895 124.83L87.4895 134.83L84.9095 134.83L84.9095 127.25L80.9295 127.25L80.9295 134.83L78.3495 134.83L78.3495 124.83L87.4895 124.83ZM98.1734 133.59C97.1468 134.603 95.8934 135.11 94.4134 135.11C92.9334 135.11 91.6801 134.603 90.6534 133.59C89.6401 132.563 89.1334 131.31 89.1334 129.83C89.1334 128.35 89.6401 127.103 90.6534 126.09C91.6801 125.063 92.9334 124.55 94.4134 124.55C95.8934 124.55 97.1468 125.063 98.1734 126.09C99.2001 127.103 99.7134 128.35 99.7134 129.83C99.7134 131.31 99.2001 132.563 98.1734 133.59ZM92.4734 131.81C92.9934 132.33 93.6401 132.59 94.4134 132.59C95.1868 132.59 95.8334 132.33 96.3534 131.81C96.8734 131.29 97.1334 130.63 97.1334 129.83C97.1334 129.03 96.8734 128.37 96.3534 127.85C95.8334 127.33 95.1868 127.07 94.4134 127.07C93.6401 127.07 92.9934 127.33 92.4734 127.85C91.9668 128.37 91.7134 129.03 91.7134 129.83C91.7134 130.63 91.9668 131.29 92.4734 131.81ZM111.728 124.83L111.728 134.83L109.228 134.83L109.228 128.99L106.688 132.99L106.368 132.99L103.808 128.95L103.808 134.83L101.328 134.83L101.328 124.83L103.868 124.83L106.528 129.03L109.188 124.83L111.728 124.83ZM122.402 133.59C121.376 134.603 120.122 135.11 118.642 135.11C117.162 135.11 115.909 134.603 114.882 133.59C113.869 132.563 113.362 131.31 113.362 129.83C113.362 128.35 113.869 127.103 114.882 126.09C115.909 125.063 117.162 124.55 118.642 124.55C120.122 124.55 121.376 125.063 122.402 126.09C123.429 127.103 123.942 128.35 123.942 129.83C123.942 131.31 123.429 132.563 122.402 133.59ZM116.702 131.81C117.222 132.33 117.869 132.59 118.642 132.59C119.416 132.59 120.062 132.33 120.582 131.81C121.102 131.29 121.362 130.63 121.362 129.83C121.362 129.03 121.102 128.37 120.582 127.85C120.062 127.33 119.416 127.07 118.642 127.07C117.869 127.07 117.222 127.33 116.702 127.85C116.196 128.37 115.942 129.03 115.942 129.83C115.942 130.63 116.196 131.29 116.702 131.81ZM132.397 124.83L132.397 127.31L128.137 127.31L128.137 134.83L125.557 134.83L125.557 124.83L132.397 124.83ZM141.535 124.83L141.535 134.83L138.955 134.83L138.955 127.31L136.195 127.31L136.195 130.65C136.195 133.743 134.788 135.137 131.975 134.83L131.975 132.41C132.508 132.543 132.915 132.457 133.195 132.15C133.475 131.83 133.615 131.283 133.615 130.51L133.615 124.83L141.535 124.83ZM150.893 124.83L152.813 124.83L152.813 134.83L150.293 134.83L150.293 129.15L145.593 134.83L143.673 134.83L143.673 124.83L146.193 124.83L146.193 130.51L150.893 124.83ZM164.537 135.11C163.03 135.11 161.77 134.603 160.757 133.59C159.757 132.577 159.257 131.323 159.257 129.83C159.257 128.337 159.757 127.083 160.757 126.07C161.77 125.057 163.03 124.55 164.537 124.55C165.51 124.55 166.397 124.783 167.197 125.25C167.997 125.717 168.604 126.343 169.017 127.13L166.797 128.43C166.597 128.017 166.29 127.69 165.877 127.45C165.477 127.21 165.024 127.09 164.517 127.09C163.744 127.09 163.104 127.35 162.597 127.87C162.09 128.377 161.837 129.03 161.837 129.83C161.837 130.617 162.09 131.27 162.597 131.79C163.104 132.297 163.744 132.55 164.517 132.55C165.037 132.55 165.497 132.437 165.897 132.21C166.31 131.97 166.617 131.643 166.817 131.23L169.057 132.51C168.617 133.297 167.997 133.93 167.197 134.41C166.397 134.877 165.51 135.11 164.537 135.11ZM179.44 124.83L179.44 134.83L176.86 134.83L176.86 127.25L172.88 127.25L172.88 134.83L170.3 134.83L170.3 124.83L179.44 124.83ZM188.823 124.83L190.743 124.83L190.743 134.83L188.223 134.83L188.223 129.15L183.523 134.83L181.603 134.83L181.603 124.83L184.123 124.83L184.123 130.51L188.823 124.83ZM197.667 135.11C196.161 135.11 194.901 134.603 193.887 133.59C192.887 132.577 192.387 131.323 192.387 129.83C192.387 128.337 192.887 127.083 193.887 126.07C194.901 125.057 196.161 124.55 197.667 124.55C198.641 124.55 199.527 124.783 200.327 125.25C201.127 125.717 201.734 126.343 202.147 127.13L199.927 128.43C199.727 128.017 199.421 127.69 199.007 127.45C198.607 127.21 198.154 127.09 197.647 127.09C196.874 127.09 196.234 127.35 195.727 127.87C195.221 128.377 194.967 129.03 194.967 129.83C194.967 130.617 195.221 131.27 195.727 131.79C196.234 132.297 196.874 132.55 197.647 132.55C198.167 132.55 198.627 132.437 199.027 132.21C199.441 131.97 199.747 131.643 199.947 131.23L202.187 132.51C201.747 133.297 201.127 133.93 200.327 134.41C199.527 134.877 198.641 135.11 197.667 135.11ZM210.796 124.83L213.376 124.83L213.376 134.83L210.796 134.83L210.796 133.65C210.022 134.623 208.936 135.11 207.536 135.11C206.202 135.11 205.056 134.603 204.096 133.59C203.149 132.563 202.676 131.31 202.676 129.83C202.676 128.35 203.149 127.103 204.096 126.09C205.056 125.063 206.202 124.55 207.536 124.55C208.936 124.55 210.022 125.037 210.796 126.01L210.796 124.83ZM206.036 131.87C206.556 132.39 207.216 132.65 208.016 132.65C208.816 132.65 209.476 132.39 209.996 131.87C210.529 131.337 210.796 130.657 210.796 129.83C210.796 129.003 210.529 128.33 209.996 127.81C209.476 127.277 208.816 127.01 208.016 127.01C207.216 127.01 206.556 127.277 206.036 127.81C205.516 128.33 205.256 129.003 205.256 129.83C205.256 130.657 205.516 131.337 206.036 131.87ZM223.395 124.83L223.395 127.31L220.275 127.31L220.275 134.83L217.695 134.83L217.695 127.31L214.535 127.31L214.535 124.83L223.395 124.83ZM229.093 128.03C230.226 128.03 231.14 128.343 231.833 128.97C232.526 129.583 232.873 130.403 232.873 131.43C232.873 132.457 232.526 133.283 231.833 133.91C231.14 134.523 230.226 134.83 229.093 134.83L224.573 134.83L224.573 124.83L227.153 124.83L227.153 128.03L229.093 128.03ZM229.113 132.55C229.473 132.55 229.766 132.45 229.993 132.25C230.233 132.037 230.353 131.763 230.353 131.43C230.353 131.097 230.233 130.823 229.993 130.61C229.766 130.397 229.473 130.29 229.113 130.29L227.153 130.29L227.153 132.55L229.113 132.55Z" fill="rgb(255,255,255)" fill-rule="nonzero" />
	</g>
	<g id="Frame 979" customFrame="url(#clipPath_1)">
		<rect id="Frame 979" width="181.000000" height="140.000000" x="273.000000" y="0.000000" />
		<path id="8" d="M378.048 55.84C384.256 59.552 387.36 64.96 387.36 72.064C387.36 78.272 385.184 83.168 380.832 86.752C376.544 90.336 370.688 92.128 363.264 92.128C355.776 92.128 349.888 90.336 345.6 86.752C341.312 83.168 339.168 78.272 339.168 72.064C339.168 64.96 342.24 59.552 348.384 55.84C343.712 52.448 341.376 47.808 341.376 41.92C341.376 35.712 343.456 30.88 347.616 27.424C351.84 23.968 357.056 22.24 363.264 22.24C369.472 22.24 374.656 23.968 378.816 27.424C382.976 30.88 385.056 35.712 385.056 41.92C385.056 47.872 382.72 52.512 378.048 55.84ZM369.504 36.832C367.904 35.424 365.824 34.72 363.264 34.72C360.704 34.72 358.624 35.424 357.024 36.832C355.424 38.24 354.624 40.16 354.624 42.592C354.624 45.024 355.424 46.976 357.024 48.448C358.624 49.856 360.704 50.56 363.264 50.56C365.824 50.56 367.904 49.856 369.504 48.448C371.104 46.976 371.904 45.024 371.904 42.592C371.904 40.16 371.104 38.24 369.504 36.832ZM355.296 77.248C357.344 78.848 360 79.648 363.264 79.648C366.528 79.648 369.152 78.848 371.136 77.248C373.184 75.584 374.208 73.28 374.208 70.336C374.208 67.456 373.184 65.216 371.136 63.616C369.152 61.952 366.528 61.12 363.264 61.12C360 61.12 357.344 61.952 355.296 63.616C353.312 65.216 352.32 67.456 352.32 70.336C352.32 73.28 353.312 75.584 355.296 77.248Z" fill="url(#paint_linear_2)" fill-rule="nonzero" />
		<path id="юристов в команде" d="M283.28 124.55C284.76 124.55 286.013 125.063 287.04 126.09C288.067 127.103 288.58 128.35 288.58 129.83C288.58 131.31 288.067 132.563 287.04 133.59C286.013 134.603 284.76 135.11 283.28 135.11C282.027 135.11 280.933 134.73 280 133.97C279.067 133.21 278.467 132.23 278.2 131.03L276.76 131.03L276.76 134.83L274.18 134.83L274.18 124.83L276.76 124.83L276.76 128.61L278.22 128.61C278.487 127.423 279.087 126.45 280.02 125.69C280.953 124.93 282.04 124.55 283.28 124.55ZM281.34 131.81C281.86 132.33 282.507 132.59 283.28 132.59C284.053 132.59 284.7 132.33 285.22 131.81C285.74 131.29 286 130.63 286 129.83C286 129.03 285.74 128.37 285.22 127.85C284.7 127.33 284.053 127.07 283.28 127.07C282.507 127.07 281.86 127.33 281.34 127.85C280.833 128.37 280.58 129.03 280.58 129.83C280.58 130.63 280.833 131.29 281.34 131.81ZM296.011 124.55C297.358 124.55 298.504 125.063 299.451 126.09C300.411 127.103 300.891 128.35 300.891 129.83C300.891 131.31 300.411 132.563 299.451 133.59C298.504 134.603 297.358 135.11 296.011 135.11C294.611 135.11 293.531 134.623 292.771 133.65L292.771 138.83L290.191 138.83L290.191 124.83L292.771 124.83L292.771 126.01C293.531 125.037 294.611 124.55 296.011 124.55ZM293.551 131.87C294.071 132.39 294.731 132.65 295.531 132.65C296.331 132.65 296.991 132.39 297.511 131.87C298.044 131.337 298.311 130.657 298.311 129.83C298.311 129.003 298.044 128.33 297.511 127.81C296.991 127.277 296.331 127.01 295.531 127.01C294.731 127.01 294.071 127.277 293.551 127.81C293.031 128.33 292.771 129.003 292.771 129.83C292.771 130.657 293.031 131.337 293.551 131.87ZM309.73 124.83L311.65 124.83L311.65 134.83L309.13 134.83L309.13 129.15L304.43 134.83L302.51 134.83L302.51 124.83L305.03 124.83L305.03 130.51L309.73 124.83ZM318.574 135.11C317.068 135.11 315.808 134.603 314.794 133.59C313.794 132.577 313.294 131.323 313.294 129.83C313.294 128.337 313.794 127.083 314.794 126.07C315.808 125.057 317.068 124.55 318.574 124.55C319.548 124.55 320.434 124.783 321.234 125.25C322.034 125.717 322.641 126.343 323.054 127.13L320.834 128.43C320.634 128.017 320.328 127.69 319.914 127.45C319.514 127.21 319.061 127.09 318.554 127.09C317.781 127.09 317.141 127.35 316.634 127.87C316.128 128.377 315.874 129.03 315.874 129.83C315.874 130.617 316.128 131.27 316.634 131.79C317.141 132.297 317.781 132.55 318.554 132.55C319.074 132.55 319.534 132.437 319.934 132.21C320.348 131.97 320.654 131.643 320.854 131.23L323.094 132.51C322.654 133.297 322.034 133.93 321.234 134.41C320.434 134.877 319.548 135.11 318.574 135.11ZM332.08 124.83L332.08 127.31L328.96 127.31L328.96 134.83L326.38 134.83L326.38 127.31L323.22 127.31L323.22 124.83L332.08 124.83ZM341.388 133.59C340.361 134.603 339.107 135.11 337.628 135.11C336.147 135.11 334.894 134.603 333.867 133.59C332.854 132.563 332.348 131.31 332.348 129.83C332.348 128.35 332.854 127.103 333.867 126.09C334.894 125.063 336.147 124.55 337.628 124.55C339.107 124.55 340.361 125.063 341.388 126.09C342.414 127.103 342.927 128.35 342.927 129.83C342.927 131.31 342.414 132.563 341.388 133.59ZM335.688 131.81C336.207 132.33 336.854 132.59 337.628 132.59C338.401 132.59 339.047 132.33 339.568 131.81C340.087 131.29 340.348 130.63 340.348 129.83C340.348 129.03 340.087 128.37 339.568 127.85C339.047 127.33 338.401 127.07 337.628 127.07C336.854 127.07 336.207 127.33 335.688 127.85C335.181 128.37 334.927 129.03 334.927 129.83C334.927 130.63 335.181 131.29 335.688 131.81ZM351.742 129.71C352.676 130.163 353.143 130.923 353.143 131.99C353.143 132.83 352.849 133.517 352.263 134.05C351.689 134.57 350.869 134.83 349.802 134.83L344.543 134.83L344.543 124.83L349.402 124.83C350.456 124.83 351.269 125.09 351.842 125.61C352.429 126.13 352.723 126.81 352.723 127.65C352.723 128.53 352.396 129.217 351.742 129.71ZM349.163 126.95L346.962 126.95L346.962 128.75L349.163 128.75C349.896 128.75 350.263 128.45 350.263 127.85C350.263 127.25 349.896 126.95 349.163 126.95ZM349.503 132.65C350.249 132.65 350.622 132.33 350.622 131.69C350.622 131.41 350.523 131.19 350.323 131.03C350.122 130.87 349.849 130.79 349.503 130.79L346.962 130.79L346.962 132.65L349.503 132.65ZM366.557 129.71C367.491 130.163 367.957 130.923 367.957 131.99C367.957 132.83 367.664 133.517 367.077 134.05C366.504 134.57 365.684 134.83 364.617 134.83L359.357 134.83L359.357 124.83L364.217 124.83C365.271 124.83 366.084 125.09 366.657 125.61C367.244 126.13 367.537 126.81 367.537 127.65C367.537 128.53 367.211 129.217 366.557 129.71ZM363.977 126.95L361.777 126.95L361.777 128.75L363.977 128.75C364.711 128.75 365.077 128.45 365.077 127.85C365.077 127.25 364.711 126.95 363.977 126.95ZM364.317 132.65C365.064 132.65 365.437 132.33 365.437 131.69C365.437 131.41 365.337 131.19 365.137 131.03C364.937 130.87 364.664 130.79 364.317 130.79L361.777 130.79L361.777 132.65L364.317 132.65ZM383.392 134.83L380.392 134.83L376.752 130.29L376.752 134.83L374.172 134.83L374.172 124.83L376.752 124.83L376.752 129.23L380.192 124.83L383.272 124.83L379.252 129.77L383.392 134.83ZM392.277 133.59C391.251 134.603 389.997 135.11 388.517 135.11C387.037 135.11 385.784 134.603 384.757 133.59C383.744 132.563 383.237 131.31 383.237 129.83C383.237 128.35 383.744 127.103 384.757 126.09C385.784 125.063 387.037 124.55 388.517 124.55C389.997 124.55 391.251 125.063 392.277 126.09C393.304 127.103 393.817 128.35 393.817 129.83C393.817 131.31 393.304 132.563 392.277 133.59ZM386.577 131.81C387.097 132.33 387.744 132.59 388.517 132.59C389.291 132.59 389.937 132.33 390.457 131.81C390.977 131.29 391.237 130.63 391.237 129.83C391.237 129.03 390.977 128.37 390.457 127.85C389.937 127.33 389.291 127.07 388.517 127.07C387.744 127.07 387.097 127.33 386.577 127.85C386.071 128.37 385.817 129.03 385.817 129.83C385.817 130.63 386.071 131.29 386.577 131.81ZM405.832 124.83L405.832 134.83L403.332 134.83L403.332 128.99L400.792 132.99L400.472 132.99L397.912 128.95L397.912 134.83L395.432 134.83L395.432 124.83L397.972 124.83L400.632 129.03L403.292 124.83L405.832 124.83ZM415.586 124.83L418.166 124.83L418.166 134.83L415.586 134.83L415.586 133.65C414.813 134.623 413.726 135.11 412.326 135.11C410.993 135.11 409.846 134.603 408.886 133.59C407.94 132.563 407.466 131.31 407.466 129.83C407.466 128.35 407.94 127.103 408.886 126.09C409.846 125.063 410.993 124.55 412.326 124.55C413.726 124.55 414.813 125.037 415.586 126.01L415.586 124.83ZM410.826 131.87C411.346 132.39 412.006 132.65 412.806 132.65C413.606 132.65 414.266 132.39 414.786 131.87C415.32 131.337 415.586 130.657 415.586 129.83C415.586 129.003 415.32 128.33 414.786 127.81C414.266 127.277 413.606 127.01 412.806 127.01C412.006 127.01 411.346 127.277 410.826 127.81C410.306 128.33 410.046 129.003 410.046 129.83C410.046 130.657 410.306 131.337 410.826 131.87ZM426.866 124.83L429.446 124.83L429.446 134.83L426.866 134.83L426.866 131.03L422.886 131.03L422.886 134.83L420.306 134.83L420.306 124.83L422.886 124.83L422.886 128.61L426.866 128.61L426.866 124.83ZM440.61 132.41L441.93 132.41L441.93 137.51L439.41 137.51L439.41 134.83L433.21 134.83L433.21 137.51L430.69 137.51L430.69 132.41L431.91 132.41C432.483 131.557 432.77 130.377 432.77 128.87L432.77 124.83L440.61 124.83L440.61 132.41ZM434.67 132.41L438.09 132.41L438.09 127.15L435.29 127.15L435.29 128.87C435.29 130.283 435.083 131.463 434.67 132.41ZM445.152 130.89C445.499 132.143 446.439 132.77 447.972 132.77C448.959 132.77 449.706 132.437 450.212 131.77L452.292 132.97C451.306 134.397 449.852 135.11 447.932 135.11C446.279 135.11 444.952 134.61 443.952 133.61C442.952 132.61 442.452 131.35 442.452 129.83C442.452 128.323 442.946 127.07 443.932 126.07C444.919 125.057 446.186 124.55 447.732 124.55C449.199 124.55 450.406 125.057 451.352 126.07C452.312 127.083 452.792 128.337 452.792 129.83C452.792 130.163 452.759 130.517 452.692 130.89L445.152 130.89ZM445.112 128.89L450.212 128.89C450.066 128.21 449.759 127.703 449.292 127.37C448.839 127.037 448.319 126.87 447.732 126.87C447.039 126.87 446.466 127.05 446.012 127.41C445.559 127.757 445.259 128.25 445.112 128.89Z" fill="rgb(255,255,255)" fill-rule="nonzero" />
	</g>
	<g id="Frame 978" customFrame="url(#clipPath_2)">
		<rect id="Frame 978" width="145.000000" height="140.000000" x="493.000000" y="0.000000" />
		<path id="14+" d="M511.72 23.584L523.24 23.584L523.24 90.784L509.992 90.784L509.992 37.6L497.32 41.152L494.056 29.824L511.72 23.584ZM583.501 67.072L583.501 79.36L576.301 79.36L576.301 90.784L562.957 90.784L562.957 79.36L531.181 79.36L531.181 67.072L553.549 23.584L567.757 23.584L545.485 67.072L562.957 67.072L562.957 51.136L576.301 51.136L576.301 67.072L583.501 67.072ZM632.181 51.328L632.181 62.944L616.341 62.944L616.341 78.784L604.724 78.784L604.724 62.944L588.98 62.944L588.98 51.328L604.724 51.328L604.724 35.584L616.341 35.584L616.341 51.328L632.181 51.328Z" fill="url(#paint_linear_3)" fill-rule="nonzero" />
		<path id="лет на рынке" d="M513.76 124.83L513.76 134.83L511.18 134.83L511.18 127.31L508.42 127.31L508.42 130.65C508.42 133.743 507.013 135.137 504.2 134.83L504.2 132.41C504.733 132.543 505.14 132.457 505.42 132.15C505.7 131.83 505.84 131.283 505.84 130.51L505.84 124.83L513.76 124.83ZM518.078 130.89C518.425 132.143 519.365 132.77 520.898 132.77C521.885 132.77 522.631 132.437 523.138 131.77L525.218 132.97C524.231 134.397 522.778 135.11 520.858 135.11C519.205 135.11 517.878 134.61 516.878 133.61C515.878 132.61 515.378 131.35 515.378 129.83C515.378 128.323 515.871 127.07 516.858 126.07C517.845 125.057 519.111 124.55 520.658 124.55C522.125 124.55 523.331 125.057 524.278 126.07C525.238 127.083 525.718 128.337 525.718 129.83C525.718 130.163 525.685 130.517 525.618 130.89L518.078 130.89ZM518.038 128.89L523.138 128.89C522.991 128.21 522.685 127.703 522.218 127.37C521.765 127.037 521.245 126.87 520.658 126.87C519.965 126.87 519.391 127.05 518.938 127.41C518.485 127.757 518.185 128.25 518.038 128.89ZM534.808 124.83L534.808 127.31L531.688 127.31L531.688 134.83L529.108 134.83L529.108 127.31L525.948 127.31L525.948 124.83L534.808 124.83ZM547.346 124.83L549.926 124.83L549.926 134.83L547.346 134.83L547.346 131.03L543.366 131.03L543.366 134.83L540.786 134.83L540.786 124.83L543.366 124.83L543.366 128.61L547.346 128.61L547.346 124.83ZM559.69 124.83L562.27 124.83L562.27 134.83L559.69 134.83L559.69 133.65C558.917 134.623 557.83 135.11 556.43 135.11C555.097 135.11 553.95 134.603 552.99 133.59C552.044 132.563 551.57 131.31 551.57 129.83C551.57 128.35 552.044 127.103 552.99 126.09C553.95 125.063 555.097 124.55 556.43 124.55C557.83 124.55 558.917 125.037 559.69 126.01L559.69 124.83ZM554.93 131.87C555.45 132.39 556.11 132.65 556.91 132.65C557.71 132.65 558.37 132.39 558.89 131.87C559.423 131.337 559.69 130.657 559.69 129.83C559.69 129.003 559.423 128.33 558.89 127.81C558.37 127.277 557.71 127.01 556.91 127.01C556.11 127.01 555.45 127.277 554.93 127.81C554.41 128.33 554.15 129.003 554.15 129.83C554.15 130.657 554.41 131.337 554.93 131.87ZM575.03 124.55C576.376 124.55 577.523 125.063 578.47 126.09C579.43 127.103 579.91 128.35 579.91 129.83C579.91 131.31 579.43 132.563 578.47 133.59C577.523 134.603 576.376 135.11 575.03 135.11C573.63 135.11 572.55 134.623 571.79 133.65L571.79 138.83L569.21 138.83L569.21 124.83L571.79 124.83L571.79 126.01C572.55 125.037 573.63 124.55 575.03 124.55ZM572.57 131.87C573.09 132.39 573.75 132.65 574.55 132.65C575.35 132.65 576.01 132.39 576.53 131.87C577.063 131.337 577.33 130.657 577.33 129.83C577.33 129.003 577.063 128.33 576.53 127.81C576.01 127.277 575.35 127.01 574.55 127.01C573.75 127.01 573.09 127.277 572.57 127.81C572.05 128.33 571.79 129.003 571.79 129.83C571.79 130.657 572.05 131.337 572.57 131.87ZM586.049 128.03C587.183 128.03 588.096 128.343 588.789 128.97C589.483 129.583 589.829 130.403 589.829 131.43C589.829 132.457 589.483 133.283 588.789 133.91C588.096 134.523 587.183 134.83 586.049 134.83L581.529 134.83L581.529 124.83L584.109 124.83L584.109 128.03L586.049 128.03ZM590.929 124.83L593.509 124.83L593.509 134.83L590.929 134.83L590.929 124.83ZM586.069 132.55C586.429 132.55 586.723 132.45 586.949 132.25C587.189 132.037 587.309 131.763 587.309 131.43C587.309 131.097 587.189 130.823 586.949 130.61C586.723 130.397 586.429 130.29 586.069 130.29L584.109 130.29L584.109 132.55L586.069 132.55ZM602.225 124.83L604.805 124.83L604.805 134.83L602.225 134.83L602.225 131.03L598.245 131.03L598.245 134.83L595.665 134.83L595.665 124.83L598.245 124.83L598.245 128.61L602.225 128.61L602.225 124.83ZM616.189 134.83L613.189 134.83L609.549 130.29L609.549 134.83L606.969 134.83L606.969 124.83L609.549 124.83L609.549 129.23L612.989 124.83L616.069 124.83L612.049 129.77L616.189 134.83ZM618.734 130.89C619.081 132.143 620.021 132.77 621.554 132.77C622.541 132.77 623.288 132.437 623.794 131.77L625.874 132.97C624.888 134.397 623.434 135.11 621.514 135.11C619.861 135.11 618.534 134.61 617.534 133.61C616.534 132.61 616.034 131.35 616.034 129.83C616.034 128.323 616.528 127.07 617.514 126.07C618.501 125.057 619.768 124.55 621.314 124.55C622.781 124.55 623.988 125.057 624.934 126.07C625.894 127.083 626.374 128.337 626.374 129.83C626.374 130.163 626.341 130.517 626.274 130.89L618.734 130.89ZM618.694 128.89L623.794 128.89C623.648 128.21 623.341 127.703 622.874 127.37C622.421 127.037 621.901 126.87 621.314 126.87C620.621 126.87 620.048 127.05 619.594 127.41C619.141 127.757 618.841 128.25 618.694 128.89Z" fill="rgb(255,255,255)" fill-rule="nonzero" />
	</g>
</svg>
